<svg width="123" height="57" viewBox="0 0 123 57" fill="none" xmlns="http://www.w3.org/2000/svg">
<path d="M0 24.2143C0 24.2143 1.68908 13.9047 18.6275 5.99997C24.5988 3.21425 29.333 1.88092 32.8063 1.88092C37.3502 1.88092 39.6816 4.14283 39.6816 8.30949C39.6816 9.97616 39.3009 11.9285 38.5397 14.1904C34.4478 26.3333 24.9794 43.4285 22.7194 45.8333C21.7202 46.9047 21.292 47.8333 21.292 48.5714C21.292 49.5 21.9581 50.119 23.0049 50.3571C23.1238 50.3809 23.2428 50.4047 23.3379 50.4047C25.0508 50.4047 26.1213 47.3809 28.31 43.0952C30.6414 38.5 30.4987 39.2619 33.1631 36.0952C35.8514 32.9047 57.8095 10.2381 61.2115 8.47616C61.5207 8.30949 61.7824 8.23806 61.9727 8.23806C62.3772 8.23806 62.5437 8.54759 62.5437 9.14283C62.5437 11.3571 59.903 17.3809 57.1672 23.4523C53.789 30.9762 48.246 42.2619 48.246 47.3095C48.246 47.5238 48.246 47.7381 48.2697 47.9523C48.4601 49.5714 49.0548 50.1428 49.6734 50.1428C50.5774 50.1428 51.6003 48.8809 51.6003 48.0238C51.6003 47.8095 51.529 47.619 51.3862 47.4762C50.8391 46.9523 50.4346 46.3571 50.4346 45.2857C50.4346 44.1904 50.8628 42.5476 52.0048 39.9047C54.1459 34.9523 66.469 11.5238 66.469 6.88092C66.469 6.61902 66.4214 6.42854 66.3501 6.28568C65.7078 5.23806 64.9941 4.69045 64.0663 4.69045C62.2582 4.69045 59.7127 6.73806 55.6208 10.9285C49.4117 17.3095 31.8309 36.0952 31.8309 36.0952C31.8309 36.0952 43.0122 16.9285 43.0122 7.14283C43.0122 5.78568 42.7743 4.59521 42.2747 3.66664C40.8235 1.02378 38.0877 -3.05176e-05 34.8284 -3.05176e-05C28.8334 -3.05176e-05 21.0303 3.38092 15.963 6.21426C8.20752 10.5476 0 18.7143 0 24.0238V24.2143Z" fill="white"/>
<path d="M43.6292 21.6428C43.6292 21.6428 43.2962 20.7857 43.2962 19.4285C43.2962 16.3809 44.9615 10.7143 55.6907 5.90473C62.3519 2.90473 69.9647 1.69045 76.8875 1.69045C86.1894 1.69045 94.3018 3.85711 97.3706 6.71426C99.0359 8.26187 99.9875 10.3095 99.9875 12.5476C99.9875 17.5476 95.2058 23.5476 82.7636 27.3095C82.7636 27.3095 79.4331 28.2381 76.6734 29.0714C78.6004 25.7857 79.1952 24.7381 80.8842 22.0238C81.6931 20.7143 83.5011 18.7619 83.5011 17.3571C83.5011 17.0476 83.4298 16.7619 83.2156 16.5238C82.4782 15.6666 81.812 15.3809 81.2173 15.3809C80.2181 15.3809 79.552 16.1904 79.552 16.1904C78.6718 17.6428 74.6751 24.5476 70.9638 31.0714C70.0122 31.2381 68.799 31.4762 67.205 31.7857C65.9204 32.0476 64.9926 32.1428 64.1837 32.1428C61.9237 32.1428 60.7104 31.3333 55.7621 30.8095C55.2149 30.7619 54.7153 30.7381 54.2871 30.7381C51.9557 30.7381 51.0993 31.4523 51.0993 32.2619C51.0993 33.1666 52.1936 34.1904 53.502 34.4047C53.8113 34.4523 54.1444 34.4762 54.5012 34.4762C57.0705 34.4762 60.639 33.3809 63.3748 33.3809H63.7793C64.6833 33.4285 66.5151 33.8333 68.9893 34.5238C66.3248 39.2381 64.1599 43.1428 64.041 43.5714C64.0172 43.6666 63.9934 43.7857 63.9934 43.9047C63.9934 45.0714 65.1353 46.8571 65.6825 46.9285C66.0155 46.9285 69.3223 41.5 72.7957 35.6428C79.0286 37.5714 87.5216 40.5952 95.8005 44.1666C109.979 50.2857 111.193 56.619 111.312 56.6428C111.312 56.6428 111.454 56.6904 111.621 56.6904C111.859 56.6904 112.144 56.5952 112.144 56.2142C112.144 56.0714 112.097 55.8571 111.978 55.5952C111.383 54.1666 108.219 50.7857 103.865 47.8571C99.4879 44.9523 89.3297 40.0714 81.4076 37.2619C78.3863 36.1904 75.6505 35.3095 73.3904 34.619C74.1755 33.2857 74.9605 31.9523 75.7218 30.6904C80.8604 29.4523 92.4461 27.3571 99.2025 21.5238C101.891 19.1904 103.508 16.0952 103.508 13C103.508 7.16664 97.7037 1.3333 82.3116 0.738065C81.2411 0.690447 80.1943 0.690446 79.1714 0.690446C57.808 0.690446 47.9114 9.19044 45.1042 12.5476C43.4389 14.5238 42.8917 17.0238 42.8917 18.9285C42.8917 20.3809 43.2248 21.4762 43.6292 21.6428ZM70.3929 32.0714L69.584 33.4762C68.2518 33.0952 67.4667 32.9047 67.4667 32.9047L70.3929 32.0714Z" fill="white"/>
<path d="M91.0026 26.0238C91.0026 26.0238 91.3594 25.7143 91.3594 25.2857C91.3594 25.0952 91.3118 24.9047 91.1215 24.6904C90.836 24.3809 89.1945 24.3095 88.9804 23.8333C88.6236 23.0238 88.457 22.1904 88.457 21.3571C88.457 12.7381 106.395 3.92854 116.315 3.92854C117.076 3.92854 117.79 3.97616 118.456 4.09521C119.503 4.26187 119.979 4.95235 119.979 6.02378C119.979 8.61902 117.29 13.3809 113.96 18.2619C109.701 24.5476 92.4538 49.119 92.4538 55.0714C92.4538 55.6666 92.6203 56.0714 93.0009 56.2619C94.1428 56.8095 94.9041 57 95.4513 57C96.3791 57 96.5456 56.3809 96.5456 55.9523C96.5456 55.7619 96.498 55.5952 96.498 55.5952C96.498 55.5952 96.3553 55.4047 96.3553 54.8333C96.3553 53.7381 96.8549 51.3333 99.6383 46.4047C103.825 38.9523 123 12.9047 123 6.92854C123 6.80949 123 6.69044 122.976 6.59521C122.548 3.78568 120.788 2.30949 117.29 2.30949C114.317 2.30949 110.106 3.38092 104.396 5.5714C92.0017 10.3333 88.5284 17.3095 88.0526 21.119C88.0288 21.3571 88.005 21.5952 88.005 21.8333C88.005 25.0952 91.0026 26.0238 91.0026 26.0238Z" fill="white"/>
</svg>
